PathFileType	4	(X/Y/Z)
DataRate	CameraRate	NumFrames	NumMarkers	Units	OrigDataRate	OrigDataStartFrame	OrigNumFrames	
  120.0	  120.0	    4	     56	     mm	  120.0	      173	    688
Frame#	Time	LASI			RASI			LPSI			RPSI			RTH1			RTH2			RTH3			RLFC			RMFC			LTH1			LTH2			LTH3			LLFC			LMFC			RTB1			RTB2			RTB3			RLMAL			RMMAL			LTB1			LTB2			LTB3			LMMAL			LLMAL			RCAL			RTOE			RMT5			LCAL			LTOE			LMT5			LACR			RACR			CLAV			C7			LASH			LPSH			RASH			RPSH			RUA1			RUA2			RUA3			RLEL			RMEL			LUA1			LUA2			LUA3			LLEL			LMEL			RFAsuperior			RFAradius			RFAulna			LFAsuperior			LFAradius			LFAulna			RHJC			LHJC			
		X1	Y1	Z1	X2	Y2	Z2	X3	Y3	Z3	X4	Y4	Z4	X5	Y5	Z5	X6	Y6	Z6	X7	Y7	Z7	X8	Y8	Z8	X9	Y9	Z9	X10	Y10	Z10	X11	Y11	Z11	X12	Y12	Z12	X13	Y13	Z13	X14	Y14	Z14	X15	Y15	Z15	X16	Y16	Z16	X17	Y17	Z17	X18	Y18	Z18	X19	Y19	Z19	X20	Y20	Z20	X21	Y21	Z21	X22	Y22	Z22	X23	Y23	Z23	X24	Y24	Z24	X25	Y25	Z25	X26	Y26	Z26	X27	Y27	Z27	X28	Y28	Z28	X29	Y29	Z29	X30	Y30	Z30	X31	Y31	Z31	X32	Y32	Z32	X33	Y33	Z33	X34	Y34	Z34	X35	Y35	Z35	X36	Y36	Z36	X37	Y37	Z37	X38	Y38	Z38	X39	Y39	Z39	X40	Y40	Z40	X41	Y41	Z41	X42	Y42	Z42	X43	Y43	Z43	X44	Y44	Z44	X45	Y45	Z45	X46	Y46	Z46	X47	Y47	Z47	X48	Y48	Z48	X49	Y49	Z49	X50	Y50	Z50	X51	Y51	Z51	X52	Y52	Z52	X53	Y53	Z53	X54	Y54	Z54	X55	Y55	Z55	X56	Y56	Z56	

222	1.85000	621.78379	1018.31457	-669.29208	807.11465	1025.06888	-517.23971	565.16896	1044.66452	-497.79200	640.99109	1046.54779	-436.52585	817.72143	875.91402	-413.38086	850.87368	732.46358	-454.56498	804.43588	642.36776	-400.46193	829.68882	540.22485	-404.38236	728.08893	519.04240	-479.56180	505.98059	856.99201	-644.34501	544.20011	751.05685	-687.37318	492.77279	639.17299	-604.52672	489.15543	537.97638	-619.72559	592.00754	514.32156	-558.99454	820.90490	401.34268	-439.41624	832.23546	360.41853	-350.19754	817.22900	226.78037	-395.34433	808.87605	122.62332	-317.49498	754.40682	128.25287	-390.25320	524.25147	395.27394	-624.26697	446.95100	312.70772	-602.17558	501.03674	205.36334	-594.06442	523.43015	122.48891	-543.41895	434.34879	116.70814	-558.07298	726.35930	84.65518	-302.39890	858.92850	79.34482	-469.03827	925.73227	48.56835	-388.53758	452.20337	86.39275	-479.69133	556.38329	74.48950	-661.76094	454.57626	44.86273	-692.29733	485.12493	1515.90982	-569.19391	743.37932	1502.51264	-387.65190	695.04001	1462.90068	-551.51106	601.44011	1519.89145	-466.03701	544.88944	1492.65697	-618.89670	464.70842	1466.67003	-535.45742	778.32179	1477.55518	-455.42337	714.36035	1460.91091	-356.79508	806.66399	1470.00795	-346.34756	883.77276	1444.91291	-379.70166	880.84638	1397.21793	-309.53486	996.04109	1381.12454	-289.77467	980.36165	1328.24472	-321.87943	421.57317	1473.84561	-613.74851	406.71887	1399.12000	-630.91148	392.96216	1442.15941	-712.15881	314.25151	1380.40764	-779.37304	344.99405	1326.04678	-763.94459	1058.08720	1422.25708	-351.75013	1210.33065	1405.60820	-470.65242	1238.08501	1389.61487	-410.43083	349.66839	1412.33273	-848.35823	451.64696	1388.74199	-1026.00851	387.17990	1370.58981	-1043.93196	739.37758	968.63873	-492.20687	610.11996	957.35269	-598.18186	
223	1.85833	621.74514	1018.32037	-669.23765	807.09104	1025.05322	-517.23806	565.15529	1044.64464	-497.77193	640.96934	1046.52148	-436.48557	817.71922	875.89099	-413.40416	850.85031	732.46738	-454.56579	804.42173	642.36453	-400.44003	829.68593	540.23406	-404.37418	728.08118	519.04857	-479.51608	505.94061	856.99364	-644.30959	544.14958	751.03735	-687.24118	492.73693	639.17626	-604.49688	489.12566	537.98298	-619.69208	592.00087	514.33350	-558.95414	820.87871	401.33392	-439.37474	832.23445	360.41373	-350.17108	817.20234	226.76723	-395.29546	808.86888	122.62255	-317.49660	754.39890	128.25149	-390.24505	524.23399	395.28188	-624.25028	446.93072	312.70816	-602.16017	501.02035	205.36357	-594.04861	523.42175	122.49113	-543.41932	434.34024	116.71145	-558.06700	726.34643	84.65632	-302.39960	858.91725	79.33521	-469.02733	925.71274	48.56127	-388.54832	452.19870	86.38684	-479.68289	556.37661	74.49502	-661.74945	454.55604	44.85242	-692.27180	485.09769	1515.90778	-569.15413	743.37909	1502.50658	-387.62659	695.03283	1462.87048	-551.46812	601.44172	1519.88498	-466.01241	544.86187	1492.65496	-618.85450	464.68738	1466.65956	-535.43589	778.30316	1477.55568	-455.39451	714.36925	1460.90328	-356.78233	806.65716	1470.02094	-346.31296	883.76246	1444.91153	-379.68617	880.84194	1397.18386	-309.53689	996.05427	1381.10407	-289.78182	980.37558	1328.23042	-321.88519	421.53923	1473.83923	-613.70302	406.68177	1399.09829	-630.83612	392.91966	1442.15207	-712.11009	314.18858	1380.39802	-779.29917	344.94847	1326.03282	-763.88495	1058.09333	1422.23899	-351.75908	1210.30255	1405.59705	-470.65736	1238.08545	1389.59797	-410.46585	349.60969	1412.32242	-848.28466	451.52447	1388.73634	-1025.96578	387.05787	1370.53936	-1043.89589	739.35499	968.62188	-492.18939	610.09196	957.34671	-598.15763	
224	1.86667	621.70487	1018.32325	-669.18580	807.06649	1025.04887	-517.23141	565.13790	1044.63295	-497.74699	640.94366	1046.49722	-436.45542	817.71304	875.88735	-413.42365	850.83187	732.47103	-454.57302	804.40464	642.36136	-400.42933	829.68612	540.23568	-404.37038	728.06661	519.03911	-479.48080	505.90267	856.99752	-644.29493	544.10331	751.02757	-687.13346	492.70422	639.17963	-604.45571	489.09984	537.98482	-619.65805	591.99819	514.34708	-558.92469	820.85640	401.31692	-439.32844	832.23842	360.41050	-350.16367	817.18166	226.75324	-395.23887	808.86079	122.61693	-317.49599	754.38788	128.24674	-390.23635	524.21346	395.29051	-624.23310	446.91525	312.70597	-602.14292	500.99672	205.36707	-594.03069	523.41593	122.49610	-543.41235	434.33383	116.71581	-558.06566	726.33822	84.65851	-302.39146	858.90411	79.33003	-469.01538	925.68851	48.55508	-388.56495	452.19053	86.38694	-479.67963	556.36827	74.50063	-661.74055	454.53834	44.84691	-692.24892	485.07785	1515.91140	-569.10841	743.37933	1502.50569	-387.59674	695.02318	1462.84726	-551.42544	601.45864	1519.88298	-465.98273	544.83226	1492.65560	-618.79144	464.66136	1466.65495	-535.41926	778.29049	1477.55307	-455.37494	714.38232	1460.90348	-356.77653	806.65714	1470.03451	-346.28788	883.75516	1444.91033	-379.67625	880.84431	1397.16130	-309.54397	996.06792	1381.09301	-289.79110	980.39070	1328.21899	-321.89152	421.50604	1473.84474	-613.65639	406.64510	1399.10020	-630.75833	392.88725	1442.14443	-712.04633	314.12318	1380.40721	-779.21841	344.90882	1326.02228	-763.84015	1058.10142	1422.23733	-351.76643	1210.26439	1405.57634	-470.68494	1238.08564	1389.59022	-410.50327	349.55812	1412.32024	-848.21104	451.39795	1388.75668	-1025.94801	386.94001	1370.53578	-1043.83561	739.33160	968.61452	-492.16821	610.06554	957.34055	-598.13157	
225	1.87500	621.66781	1018.32674	-669.14865	807.04055	1025.05728	-517.21139	565.11923	1044.63265	-497.71745	640.91954	1046.48797	-436.44081	817.70622	875.89941	-413.42382	850.82022	732.47219	-454.58668	804.39452	642.35316	-400.43786	829.69048	540.22654	-404.37171	728.05029	519.02359	-479.48443	505.86871	857.00557	-644.29820	544.06217	751.01911	-687.04927	492.68061	639.18220	-604.41714	489.07977	537.98400	-619.63112	591.99497	514.35744	-558.90612	820.84268	401.29922	-439.29138	832.24711	360.40663	-350.17667	817.16753	226.73891	-395.18481	808.85644	122.60907	-317.49248	754.37304	128.24129	-390.23162	524.18942	395.29503	-624.21115	446.90172	312.70554	-602.12098	500.96652	205.36302	-593.99662	523.41251	122.50005	-543.40072	434.33024	116.71761	-558.07152	726.33868	84.66073	-302.37623	858.89209	79.33277	-469.00848	925.66570	48.54785	-388.58406	452.18435	86.39136	-479.68245	556.36069	74.50380	-661.73642	454.52717	44.84980	-692.23657	485.06531	1515.91883	-569.05835	743.38365	1502.51400	-387.57275	695.01261	1462.82697	-551.38995	601.48697	1519.88721	-465.94648	544.80082	1492.65601	-618.70533	464.63794	1466.65085	-535.40834	778.28551	1477.54874	-455.36656	714.39767	1460.91233	-356.77621	806.67013	1470.04141	-346.27881	883.75692	1444.90671	-379.67338	880.85645	1397.15351	-309.55494	996.08171	1381.09145	-289.80286	980.40325	1328.21043	-321.89857	421.48004	1473.85531	-613.60884	406.60997	1399.12163	-630.68308	392.86291	1442.14299	-711.98030	314.05896	1380.42866	-779.13601	344.87796	1326.01200	-763.80758	1058.10937	1422.24825	-351.77465	1210.23115	1405.55638	-470.70966	1238.08842	1389.58852	-410.53812	349.50659	1412.31869	-848.14275	451.28786	1388.81761	-1025.96856	386.82203	1370.57298	-1043.74206	739.30813	968.61923	-492.14466	610.04048	957.34031	-598.10502	
